<svg id="Capa_1" data-name="Capa 1" xmlns="http://www.w3.org/2000/svg" viewBox="0 0 1080 1080"><title>x3</title><path fill="white" d="M670.35,535.56h12.79V554c0,9.3-4.65,14.62-13.62,14.62S655.9,563.29,655.9,554V523.76c0-9.3,4.65-14.62,13.62-14.62s13.62,5.31,13.62,14.62v5.65H674.5v-6.23c0-4.15-1.83-5.73-4.73-5.73S665,519,665,523.18v31.39c0,4.15,1.83,5.65,4.73,5.65s4.73-1.49,4.73-5.65V543.86h-4.15Z"/><path fill="white" d="M728.06,567.94c-.5-1.49-.83-2.41-.83-7.14v-9.13c0-5.4-1.83-7.39-6-7.39H718.1v23.67H709V509.81h13.79c9.47,0,13.53,4.4,13.53,13.37v4.57c0,6-1.91,9.8-6,11.71v.17c4.57,1.91,6.06,6.23,6.06,12.29v9c0,2.82.08,4.9,1,7.06Zm-10-49.82V536h3.57c3.41,0,5.48-1.49,5.48-6.14V524.1c0-4.15-1.41-6-4.65-6Z"/><path fill="white" d="M761.53,523.76c0-9.3,4.9-14.62,13.87-14.62s13.87,5.31,13.87,14.62V554c0,9.3-4.9,14.62-13.87,14.62s-13.87-5.31-13.87-14.62Zm9.13,30.81c0,4.15,1.83,5.73,4.73,5.73s4.73-1.58,4.73-5.73V523.18c0-4.15-1.83-5.73-4.73-5.73s-4.73,1.58-4.73,5.73Z"/><path fill="white" d="M823.8,509.81v44.84c0,4.15,1.83,5.65,4.73,5.65s4.73-1.49,4.73-5.65V509.81h8.64v44.26c0,9.3-4.65,14.62-13.62,14.62s-13.62-5.31-13.62-14.62V509.81Z"/><path fill="white" d="M895.13,524.18v7.56c0,9.3-4.48,14.37-13.62,14.37H877.2v21.84h-9.13V509.81h13.45C890.65,509.81,895.13,514.88,895.13,524.18Zm-17.94-6.06V537.8h4.32c2.91,0,4.48-1.33,4.48-5.48V523.6c0-4.15-1.58-5.48-4.48-5.48Z"/><path fill="white" d="M285.91,570.25l26.42-5.13S313.88,588.88,339,585c9.75-1.5,17.09-12.25,15.22-21.94-1.31-6.78-7.43-12.25-14.15-13.44-3-.53-15.58,0-15.58,0L324.15,527s16.71-.81,22.06-6.75a18.27,18.27,0,0,0,4.23-15.73,16.2,16.2,0,0,0-6.56-10.05c-4.49-3-10.45-3.12-15.57-1.36-12.25,4.2-13.81,16.2-13.81,16.2L288,509c2.8-13.77,7.42-26.75,19.72-34.78a47.69,47.69,0,0,1,29.4-7.18c16.24,1.2,32.17,10.79,38.78,25.67,6.88,15.49-.7,34.45-8.9,42.29,9,5,12.83,12.83,13.83,17.83,4.52,22.59-.63,44.28-20.83,55.83-13.15,7.52-32.9,8.64-46.61,2.21a48.28,48.28,0,0,1-26.59-34.71C286.59,575,285.91,570.25,285.91,570.25Z"/><path fill="white" d="M753.52,342l-162,178.51-18,19.82,18.32,19.52L754.68,733.33H699.48L568.73,595.14l-21.15-22.35-21.06,22.43L393.11,737.33H329.45L496.78,559.54l18.53-19.69L497,520,332.59,342h60.94l125,137.2,21,23L561,479.67,692.1,342h61.43M819,313h0Zm0,0H679.67L540,459.67,406.33,313h-140L475.67,539.67,262.33,766.33H405.67l142-151.26L687,762.33H821.67L613,540,819,313Z"/><path fill="white" d="M540,166.27a372.47,372.47,0,1,1-145.46,29.36A371.36,371.36,0,0,1,540,166.27m0-29c-222.42,0-402.73,180.31-402.73,402.73S317.58,942.73,540,942.73,942.73,762.42,942.73,540,762.42,137.27,540,137.27Z"/></svg>